<mxfile host="65bd71144e">
    <diagram id="wk4ZRGKlZdovml1lTBPc" name="Page-1">
        <mxGraphModel dx="817" dy="777" grid="1" gridSize="10" guides="1" tooltips="1" connect="1" arrows="1" fold="1" page="1" pageScale="1" pageWidth="850" pageHeight="1100" math="0" shadow="0">
            <root>
                <mxCell id="0"/>
                <mxCell id="1" parent="0"/>
                <mxCell id="2" value="Boss" style="rounded=0;whiteSpace=wrap;html=1;" vertex="1" parent="1">
                    <mxGeometry x="365" y="70" width="120" height="40" as="geometry"/>
                </mxCell>
                <mxCell id="3" value="hp: int&lt;br&gt;damage: int&lt;br&gt;name: string&lt;br&gt;weapon:string" style="rounded=0;whiteSpace=wrap;html=1;" vertex="1" parent="1">
                    <mxGeometry x="365" y="110" width="120" height="60" as="geometry"/>
                </mxCell>
                <mxCell id="4" value="attac(): void&lt;br&gt;move(): void" style="rounded=0;whiteSpace=wrap;html=1;" vertex="1" parent="1">
                    <mxGeometry x="365" y="170" width="120" height="60" as="geometry"/>
                </mxCell>
                <mxCell id="5" value="BubbleMan" style="rounded=0;whiteSpace=wrap;html=1;" vertex="1" parent="1">
                    <mxGeometry x="525" y="270" width="120" height="40" as="geometry"/>
                </mxCell>
                <mxCell id="6" value="" style="rounded=0;whiteSpace=wrap;html=1;" vertex="1" parent="1">
                    <mxGeometry x="525" y="310" width="120" height="60" as="geometry"/>
                </mxCell>
                <mxCell id="7" value="" style="rounded=0;whiteSpace=wrap;html=1;" vertex="1" parent="1">
                    <mxGeometry x="525" y="370" width="120" height="60" as="geometry"/>
                </mxCell>
                <mxCell id="8" value="TrashMan" style="rounded=0;whiteSpace=wrap;html=1;" vertex="1" parent="1">
                    <mxGeometry x="205" y="270" width="120" height="40" as="geometry"/>
                </mxCell>
                <mxCell id="9" value="" style="rounded=0;whiteSpace=wrap;html=1;" vertex="1" parent="1">
                    <mxGeometry x="205" y="310" width="120" height="60" as="geometry"/>
                </mxCell>
                <mxCell id="10" value="" style="rounded=0;whiteSpace=wrap;html=1;" vertex="1" parent="1">
                    <mxGeometry x="205" y="370" width="120" height="60" as="geometry"/>
                </mxCell>
                <mxCell id="11" value="" style="endArrow=classic;html=1;entryX=0.5;entryY=1;entryDx=0;entryDy=0;" edge="1" parent="1" target="4">
                    <mxGeometry width="50" height="50" relative="1" as="geometry">
                        <mxPoint x="265" y="270" as="sourcePoint"/>
                        <mxPoint x="315" y="220" as="targetPoint"/>
                        <Array as="points">
                            <mxPoint x="265" y="250"/>
                            <mxPoint x="425" y="250"/>
                        </Array>
                    </mxGeometry>
                </mxCell>
                <mxCell id="12" value="" style="endArrow=classic;html=1;exitX=0.5;exitY=0;exitDx=0;exitDy=0;" edge="1" parent="1" source="5">
                    <mxGeometry width="50" height="50" relative="1" as="geometry">
                        <mxPoint x="425" y="270" as="sourcePoint"/>
                        <mxPoint x="425" y="230" as="targetPoint"/>
                        <Array as="points">
                            <mxPoint x="585" y="250"/>
                            <mxPoint x="425" y="250"/>
                        </Array>
                    </mxGeometry>
                </mxCell>
            </root>
        </mxGraphModel>
    </diagram>
</mxfile>